ffmpeg started on 2025-07-06 at 17:46:00
Report written to "D:\Convert\FFMetrics\reports\ssim_report-6.txt"
Log level: 32
Command line:
ffmpeg -hide_banner -nostdin -i "G:\\\xc0\xed\xe8\xec\xe5\\\xce\xed\xe3\xee\xe8\xed\xe3\xe8\\!_37_\xc7\xe8\xec\xe0_2025\\JamClub\\\xc3\xee\xeb\xf3\xe1\xe0\xff \xf8\xea\xe0\xf2\xf3\xeb\xea\xe0\\JamClub_Ao_no_Hako_09_1080p_HEVC.mkv" -i "G:\\\xc0\xed\xe8\xec\xe5\\\xce\xed\xe3\xee\xe8\xed\xe3\xe8\\!_37_\xc7\xe8\xec\xe0_2025\\JamClub\\\xc3\xee\xeb\xf3\xe1\xe0\xff \xf8\xea\xe0\xf2\xf3\xeb\xea\xe0\\JamClub_Ao_no_Hako_09_1080p.mp4" -lavfi "[0:v]settb=AVTB,setpts=PTS-STARTPTS,format=pix_fmts=yuv420p10,fps=24000/1001,scale=1920:1080:flags=bicubic[main];[1:v]settb=AVTB,setpts=PTS-STARTPTS,format=pix_fmts=yuv420p,fps=24000/1001,scale=1920:1080:flags=bicubic[ref];[main][ref]ssim=eof_action=endall:stats_file='D\\:/Convert/FFMetrics/logs/ssim_logfile-6.txt'" -f null -
Input #0, matroska,webm, from 'G:\Аниме\Онгоинги\!_37_Зима_2025\JamClub\Голубая шкатулка\JamClub_Ao_no_Hako_09_1080p_HEVC.mkv':
  Metadata:
    COMPATIBLE_BRANDS: isomiso2avc1mp41
    MAJOR_BRAND     : isom
    MINOR_VERSION   : 512
    ENCODER         : Lavf61.7.100
  Duration: 00:23:59.25, start: -0.001000, bitrate: 1071 kb/s
  Stream #0:0: Video: hevc (Main 10), yuv420p10le(tv, bt709, progressive), 1920x1080 [SAR 1:1 DAR 16:9], 23.98 fps, 23.98 tbr, 1k tbn (default)
      Metadata:
        HANDLER_NAME    : VideoHandler
        VENDOR_ID       : [0][0][0][0]
        ENCODER         : Lavc61.19.100 libx265
        BPS             : 874587
        DURATION        : 00:23:59.187708333
        NUMBER_OF_FRAMES: 34506
        NUMBER_OF_BYTES : 157336839
        _STATISTICS_WRITING_APP: mkvpropedit v66.0.0 ('Josie') 64-bit
        _STATISTICS_WRITING_DATE_UTC: 2025-07-05 09:08:35
        _STATISTICS_TAGS: BPS DURATION NUMBER_OF_FRAMES NUMBER_OF_BYTES
  Stream #0:1(eng): Audio: aac (LC), 48000 Hz, stereo, fltp (default)
      Metadata:
        HANDLER_NAME    : SoundHandler
        VENDOR_ID       : [0][0][0][0]
        ENCODER         : Lavc61.19.100 aac
        BPS             : 192606
        DURATION        : 00:23:59.213000000
        NUMBER_OF_FRAMES: 67464
        NUMBER_OF_BYTES : 34650134
        _STATISTICS_WRITING_APP: mkvpropedit v66.0.0 ('Josie') 64-bit
        _STATISTICS_WRITING_DATE_UTC: 2025-07-05 09:08:35
        _STATISTICS_TAGS: BPS DURATION NUMBER_OF_FRAMES NUMBER_OF_BYTES
Input #1, mov,mp4,m4a,3gp,3g2,mj2, from 'G:\Аниме\Онгоинги\!_37_Зима_2025\JamClub\Голубая шкатулка\JamClub_Ao_no_Hako_09_1080p.mp4':
  Metadata:
    major_brand     : isom
    minor_version   : 512
    compatible_brands: isomiso2avc1mp41
    encoder         : Lavf60.16.100
  Duration: 00:23:59.23, start: 0.000000, bitrate: 4463 kb/s
  Stream #1:0[0x1](und): Video: h264 (High) (avc1 / 0x31637661), yuv420p(progressive), 1920x1080 [SAR 1:1 DAR 16:9], 4265 kb/s, 23.98 fps, 23.98 tbr, 90k tbn (default)
      Metadata:
        handler_name    : VideoHandler
        vendor_id       : [0][0][0][0]
  Stream #1:1[0x2](eng): Audio: aac (LC) (mp4a / 0x6134706D), 48000 Hz, stereo, fltp, 191 kb/s (default)
      Metadata:
        handler_name    : SoundHandler
        vendor_id       : [0][0][0][0]
Stream mapping:
  Stream #0:0 (hevc) -> settb:default
  Stream #1:0 (h264) -> settb:default
  ssim:default -> Stream #0:0 (wrapped_avframe)
  Stream #0:1 -> #0:1 (aac (native) -> pcm_s16le (native))
Output #0, null, to 'pipe:':
  Metadata:
    COMPATIBLE_BRANDS: isomiso2avc1mp41
    MAJOR_BRAND     : isom
    MINOR_VERSION   : 512
    encoder         : Lavf61.7.100
  Stream #0:0: Video: wrapped_avframe, yuv420p10le(tv, bt709, progressive), 1920x1080 [SAR 1:1 DAR 16:9], q=2-31, 200 kb/s, 23.98 fps, 23.98 tbn
      Metadata:
        encoder         : Lavc61.19.100 wrapped_avframe
  Stream #0:1(eng): Audio: pcm_s16le, 48000 Hz, stereo, s16, 1536 kb/s (default)
      Metadata:
        HANDLER_NAME    : SoundHandler
        VENDOR_ID       : [0][0][0][0]
        _STATISTICS_TAGS: BPS DURATION NUMBER_OF_FRAMES NUMBER_OF_BYTES
        BPS             : 192606
        DURATION        : 00:23:59.213000000
        NUMBER_OF_FRAMES: 67464
        NUMBER_OF_BYTES : 34650134
        _STATISTICS_WRITING_APP: mkvpropedit v66.0.0 ('Josie') 64-bit
        _STATISTICS_WRITING_DATE_UTC: 2025-07-05 09:08:35
        encoder         : Lavc61.19.100 pcm_s16le
frame=  106 fps=0.0 q=-0.0 size=N/A time=00:00:04.42 bitrate=N/A speed=8.55x    frame=  268 fps=257 q=-0.0 size=N/A time=00:00:11.17 bitrate=N/A speed=10.7x    frame=  458 fps=294 q=-0.0 size=N/A time=00:00:19.10 bitrate=N/A speed=12.3x    frame=  723 fps=350 q=-0.0 size=N/A time=00:00:30.15 bitrate=N/A speed=14.6x    frame=  977 fps=379 q=-0.0 size=N/A time=00:00:40.74 bitrate=N/A speed=15.8x    frame= 1251 fps=403 q=-0.0 size=N/A time=00:00:52.17 bitrate=N/A speed=16.8x    frame= 1497 fps=414 q=-0.0 size=N/A time=00:01:02.43 bitrate=N/A speed=17.3x    frame= 1754 fps=425 q=-0.0 size=N/A time=00:01:13.15 bitrate=N/A speed=17.7x    frame= 2012 fps=434 q=-0.0 size=N/A time=00:01:23.91 bitrate=N/A speed=18.1x    frame= 2255 fps=436 q=-0.0 size=N/A time=00:01:34.05 bitrate=N/A speed=18.2x    frame= 2439 fps=430 q=-0.0 size=N/A time=00:01:41.72 bitrate=N/A speed=17.9x    frame= 2668 fps=431 q=-0.0 size=N/A time=00:01:51.27 bitrate=N/A speed=  18x    frame= 2890 fps=431 q=-0.0 size=N/A time=00:02:00.53 bitrate=N/A speed=  18x    frame= 3108 fps=430 q=-0.0 size=N/A time=00:02:09.62 bitrate=N/A speed=17.9x    frame= 3301 fps=426 q=-0.0 size=N/A time=00:02:17.67 bitrate=N/A speed=17.8x    frame= 3509 fps=425 q=-0.0 size=N/A time=00:02:26.35 bitrate=N/A speed=17.7x    frame= 3730 fps=425 q=-0.0 size=N/A time=00:02:35.57 bitrate=N/A speed=17.7x    frame= 3929 fps=423 q=-0.0 size=N/A time=00:02:43.87 bitrate=N/A speed=17.6x    frame= 4122 fps=421 q=-0.0 size=N/A time=00:02:51.92 bitrate=N/A speed=17.5x    frame= 4329 fps=420 q=-0.0 size=N/A time=00:03:00.55 bitrate=N/A speed=17.5x    frame= 4541 fps=419 q=-0.0 size=N/A time=00:03:09.39 bitrate=N/A speed=17.5x    frame= 4744 fps=418 q=-0.0 size=N/A time=00:03:17.86 bitrate=N/A speed=17.4x    frame= 4979 fps=420 q=-0.0 size=N/A time=00:03:27.66 bitrate=N/A speed=17.5x    frame= 5236 fps=423 q=-0.0 size=N/A time=00:03:38.38 bitrate=N/A speed=17.6x    frame= 5443 fps=422 q=-0.0 size=N/A time=00:03:47.01 bitrate=N/A speed=17.6x    frame= 5659 fps=422 q=-0.0 size=N/A time=00:03:56.02 bitrate=N/A speed=17.6x    frame= 5873 fps=422 q=-0.0 size=N/A time=00:04:04.95 bitrate=N/A speed=17.6x    frame= 6092 fps=422 q=-0.0 size=N/A time=00:04:14.08 bitrate=N/A speed=17.6x    frame= 6324 fps=423 q=-0.0 size=N/A time=00:04:23.76 bitrate=N/A speed=17.6x    frame= 6551 fps=423 q=-0.0 size=N/A time=00:04:33.23 bitrate=N/A speed=17.7x    frame= 6815 fps=426 q=-0.0 size=N/A time=00:04:44.24 bitrate=N/A speed=17.8x    frame= 7075 fps=428 q=-0.0 size=N/A time=00:04:55.08 bitrate=N/A speed=17.9x    frame= 7302 fps=429 q=-0.0 size=N/A time=00:05:04.55 bitrate=N/A speed=17.9x    frame= 7541 fps=430 q=-0.0 size=N/A time=00:05:14.52 bitrate=N/A speed=17.9x    frame= 7782 fps=431 q=-0.0 size=N/A time=00:05:24.57 bitrate=N/A speed=  18x    frame= 8036 fps=432 q=-0.0 size=N/A time=00:05:35.16 bitrate=N/A speed=  18x    frame= 8286 fps=434 q=-0.0 size=N/A time=00:05:45.59 bitrate=N/A speed=18.1x    frame= 8536 fps=435 q=-0.0 size=N/A time=00:05:56.02 bitrate=N/A speed=18.2x    frame= 8793 fps=437 q=-0.0 size=N/A time=00:06:06.74 bitrate=N/A speed=18.2x    frame= 9063 fps=439 q=-0.0 size=N/A time=00:06:18.00 bitrate=N/A speed=18.3x    frame= 9336 fps=441 q=-0.0 size=N/A time=00:06:29.38 bitrate=N/A speed=18.4x    frame= 9614 fps=444 q=-0.0 size=N/A time=00:06:40.98 bitrate=N/A speed=18.5x    frame= 9888 fps=446 q=-0.0 size=N/A time=00:06:52.41 bitrate=N/A speed=18.6x    frame=10113 fps=445 q=-0.0 size=N/A time=00:07:01.79 bitrate=N/A speed=18.6x    frame=10360 fps=446 q=-0.0 size=N/A time=00:07:12.09 bitrate=N/A speed=18.6x    frame=10608 fps=447 q=-0.0 size=N/A time=00:07:22.44 bitrate=N/A speed=18.6x    frame=10824 fps=446 q=-0.0 size=N/A time=00:07:31.45 bitrate=N/A speed=18.6x    frame=11094 fps=448 q=-0.0 size=N/A time=00:07:42.71 bitrate=N/A speed=18.7x    frame=11344 fps=449 q=-0.0 size=N/A time=00:07:53.13 bitrate=N/A speed=18.7x    frame=11613 fps=450 q=-0.0 size=N/A time=00:08:04.35 bitrate=N/A speed=18.8x    frame=11881 fps=451 q=-0.0 size=N/A time=00:08:15.53 bitrate=N/A speed=18.8x    frame=12133 fps=452 q=-0.0 size=N/A time=00:08:26.04 bitrate=N/A speed=18.9x    frame=12347 fps=451 q=-0.0 size=N/A time=00:08:34.97 bitrate=N/A speed=18.8x    frame=12606 fps=452 q=-0.0 size=N/A time=00:08:45.77 bitrate=N/A speed=18.9x    frame=12850 fps=453 q=-0.0 size=N/A time=00:08:55.95 bitrate=N/A speed=18.9x    frame=13047 fps=451 q=-0.0 size=N/A time=00:09:04.16 bitrate=N/A speed=18.8x    frame=13294 fps=452 q=-0.0 size=N/A time=00:09:14.47 bitrate=N/A speed=18.9x    frame=13467 fps=450 q=-0.0 size=N/A time=00:09:21.68 bitrate=N/A speed=18.8x    frame=13678 fps=449 q=-0.0 size=N/A time=00:09:30.48 bitrate=N/A speed=18.7x    frame=13885 fps=448 q=-0.0 size=N/A time=00:09:39.12 bitrate=N/A speed=18.7x    frame=14130 fps=449 q=-0.0 size=N/A time=00:09:49.33 bitrate=N/A speed=18.7x    frame=14403 fps=450 q=-0.0 size=N/A time=00:10:00.72 bitrate=N/A speed=18.8x    frame=14680 fps=451 q=-0.0 size=N/A time=00:10:12.27 bitrate=N/A speed=18.8x    frame=14947 fps=452 q=-0.0 size=N/A time=00:10:23.41 bitrate=N/A speed=18.9x    frame=15205 fps=453 q=-0.0 size=N/A time=00:10:34.17 bitrate=N/A speed=18.9x    frame=15416 fps=452 q=-0.0 size=N/A time=00:10:42.97 bitrate=N/A speed=18.9x    frame=15659 fps=453 q=-0.0 size=N/A time=00:10:53.11 bitrate=N/A speed=18.9x    frame=15904 fps=453 q=-0.0 size=N/A time=00:11:03.32 bitrate=N/A speed=18.9x    frame=16163 fps=454 q=-0.0 size=N/A time=00:11:14.13 bitrate=N/A speed=18.9x    frame=16434 fps=455 q=-0.0 size=N/A time=00:11:25.43 bitrate=N/A speed=  19x    frame=16689 fps=455 q=-0.0 size=N/A time=00:11:36.07 bitrate=N/A speed=  19x    frame=16959 fps=456 q=-0.0 size=N/A time=00:11:47.33 bitrate=N/A speed=  19x    frame=17229 fps=457 q=-0.0 size=N/A time=00:11:58.59 bitrate=N/A speed=19.1x    frame=17490 fps=458 q=-0.0 size=N/A time=00:12:09.47 bitrate=N/A speed=19.1x    frame=17740 fps=458 q=-0.0 size=N/A time=00:12:19.90 bitrate=N/A speed=19.1x    frame=17985 fps=459 q=-0.0 size=N/A time=00:12:30.12 bitrate=N/A speed=19.1x    frame=18242 fps=459 q=-0.0 size=N/A time=00:12:40.84 bitrate=N/A speed=19.1x    frame=18485 fps=459 q=-0.0 size=N/A time=00:12:50.97 bitrate=N/A speed=19.1x    frame=18722 fps=459 q=-0.0 size=N/A time=00:13:00.86 bitrate=N/A speed=19.1x    frame=18952 fps=459 q=-0.0 size=N/A time=00:13:10.45 bitrate=N/A speed=19.1x    frame=19200 fps=459 q=-0.0 size=N/A time=00:13:20.80 bitrate=N/A speed=19.1x    frame=19414 fps=459 q=-0.0 size=N/A time=00:13:29.72 bitrate=N/A speed=19.1x    frame=19653 fps=459 q=-0.0 size=N/A time=00:13:39.69 bitrate=N/A speed=19.1x    frame=19911 fps=459 q=-0.0 size=N/A time=00:13:50.45 bitrate=N/A speed=19.2x    frame=20163 fps=459 q=-0.0 size=N/A time=00:14:00.96 bitrate=N/A speed=19.2x    frame=20434 fps=460 q=-0.0 size=N/A time=00:14:12.26 bitrate=N/A speed=19.2x    frame=20690 fps=461 q=-0.0 size=N/A time=00:14:22.94 bitrate=N/A speed=19.2x    frame=20950 fps=461 q=-0.0 size=N/A time=00:14:33.83 bitrate=N/A speed=19.2x    frame=21217 fps=462 q=-0.0 size=N/A time=00:14:44.92 bitrate=N/A speed=19.3x    frame=21472 fps=462 q=-0.0 size=N/A time=00:14:55.56 bitrate=N/A speed=19.3x    frame=21715 fps=462 q=-0.0 size=N/A time=00:15:05.69 bitrate=N/A speed=19.3x    frame=21976 fps=463 q=-0.0 size=N/A time=00:15:16.58 bitrate=N/A speed=19.3x    frame=22243 fps=463 q=-0.0 size=N/A time=00:15:27.71 bitrate=N/A speed=19.3x    frame=22493 fps=463 q=-0.0 size=N/A time=00:15:38.14 bitrate=N/A speed=19.3x    frame=22740 fps=464 q=-0.0 size=N/A time=00:15:48.44 bitrate=N/A speed=19.3x    frame=22981 fps=464 q=-0.0 size=N/A time=00:15:58.49 bitrate=N/A speed=19.3x    frame=23249 fps=464 q=-0.0 size=N/A time=00:16:09.67 bitrate=N/A speed=19.4x    frame=23514 fps=465 q=-0.0 size=N/A time=00:16:20.72 bitrate=N/A speed=19.4x    frame=23784 fps=465 q=-0.0 size=N/A time=00:16:31.99 bitrate=N/A speed=19.4x    frame=24055 fps=466 q=-0.0 size=N/A time=00:16:43.29 bitrate=N/A speed=19.4x    frame=24319 fps=466 q=-0.0 size=N/A time=00:16:54.30 bitrate=N/A speed=19.5x    frame=24549 fps=466 q=-0.0 size=N/A time=00:17:03.89 bitrate=N/A speed=19.4x    frame=24795 fps=466 q=-0.0 size=N/A time=00:17:14.15 bitrate=N/A speed=19.4x    frame=25054 fps=467 q=-0.0 size=N/A time=00:17:24.96 bitrate=N/A speed=19.5x    frame=25314 fps=467 q=-0.0 size=N/A time=00:17:35.80 bitrate=N/A speed=19.5x    frame=25563 fps=467 q=-0.0 size=N/A time=00:17:46.19 bitrate=N/A speed=19.5x    frame=25826 fps=467 q=-0.0 size=N/A time=00:17:57.15 bitrate=N/A speed=19.5x    frame=26078 fps=468 q=-0.0 size=N/A time=00:18:07.66 bitrate=N/A speed=19.5x    frame=26308 fps=468 q=-0.0 size=N/A time=00:18:17.26 bitrate=N/A speed=19.5x    frame=26559 fps=468 q=-0.0 size=N/A time=00:18:27.73 bitrate=N/A speed=19.5x    frame=26806 fps=468 q=-0.0 size=N/A time=00:18:38.03 bitrate=N/A speed=19.5x    frame=27067 fps=468 q=-0.0 size=N/A time=00:18:48.91 bitrate=N/A speed=19.5x    frame=27325 fps=468 q=-0.0 size=N/A time=00:18:59.68 bitrate=N/A speed=19.5x    frame=27589 fps=469 q=-0.0 size=N/A time=00:19:10.69 bitrate=N/A speed=19.6x    frame=27860 fps=469 q=-0.0 size=N/A time=00:19:21.99 bitrate=N/A speed=19.6x    frame=28098 fps=469 q=-0.0 size=N/A time=00:19:31.92 bitrate=N/A speed=19.6x    frame=28348 fps=469 q=-0.0 size=N/A time=00:19:42.34 bitrate=N/A speed=19.6x    frame=28595 fps=470 q=-0.0 size=N/A time=00:19:52.64 bitrate=N/A speed=19.6x    frame=28849 fps=470 q=-0.0 size=N/A time=00:20:03.24 bitrate=N/A speed=19.6x    frame=29102 fps=470 q=-0.0 size=N/A time=00:20:13.79 bitrate=N/A speed=19.6x    frame=29353 fps=470 q=-0.0 size=N/A time=00:20:24.26 bitrate=N/A speed=19.6x    frame=29614 fps=470 q=-0.0 size=N/A time=00:20:35.15 bitrate=N/A speed=19.6x    frame=29849 fps=470 q=-0.0 size=N/A time=00:20:44.95 bitrate=N/A speed=19.6x    frame=30103 fps=470 q=-0.0 size=N/A time=00:20:55.54 bitrate=N/A speed=19.6x    frame=30352 fps=470 q=-0.0 size=N/A time=00:21:05.93 bitrate=N/A speed=19.6x    frame=30625 fps=471 q=-0.0 size=N/A time=00:21:17.31 bitrate=N/A speed=19.6x    frame=30860 fps=471 q=-0.0 size=N/A time=00:21:27.11 bitrate=N/A speed=19.6x    frame=31103 fps=471 q=-0.0 size=N/A time=00:21:37.25 bitrate=N/A speed=19.6x    frame=31339 fps=471 q=-0.0 size=N/A time=00:21:47.09 bitrate=N/A speed=19.6x    frame=31613 fps=471 q=-0.0 size=N/A time=00:21:58.52 bitrate=N/A speed=19.6x    frame=31857 fps=471 q=-0.0 size=N/A time=00:22:08.70 bitrate=N/A speed=19.7x    frame=32069 fps=471 q=-0.0 size=N/A time=00:22:17.54 bitrate=N/A speed=19.6x    frame=32303 fps=471 q=-0.0 size=N/A time=00:22:27.30 bitrate=N/A speed=19.6x    frame=32545 fps=471 q=-0.0 size=N/A time=00:22:37.39 bitrate=N/A speed=19.6x    frame=32730 fps=470 q=-0.0 size=N/A time=00:22:45.11 bitrate=N/A speed=19.6x    frame=32956 fps=470 q=-0.0 size=N/A time=00:22:54.53 bitrate=N/A speed=19.6x    frame=33145 fps=469 q=-0.0 size=N/A time=00:23:02.42 bitrate=N/A speed=19.6x    frame=33375 fps=469 q=-0.0 size=N/A time=00:23:12.01 bitrate=N/A speed=19.5x    frame=33621 fps=469 q=-0.0 size=N/A time=00:23:22.27 bitrate=N/A speed=19.5x    frame=33815 fps=468 q=-0.0 size=N/A time=00:23:30.36 bitrate=N/A speed=19.5x    frame=34041 fps=468 q=-0.0 size=N/A time=00:23:39.79 bitrate=N/A speed=19.5x    frame=34274 fps=468 q=-0.0 size=N/A time=00:23:49.51 bitrate=N/A speed=19.5x    frame=34505 fps=468 q=-0.0 size=N/A time=00:23:59.14 bitrate=N/A speed=19.5x    [Parsed_ssim_10 @ 0000017fdf4a7740] SSIM Y:0.994446 (22.554082) U:0.994568 (22.650230) V:0.994298 (22.439881) All:0.994442 (22.550646)
[out#0/null @ 0000017fd3684ac0] video:14827KiB audio:269856KiB subtitle:0KiB other streams:0KiB global headers:0KiB muxing overhead: unknown
frame=34506 fps=467 q=-0.0 Lsize=N/A time=00:23:59.18 bitrate=N/A speed=19.5x    
